<svg xmlns="http://www.w3.org/2000/svg" viewBox="0 0 300 300" fill="none">
  <!-- Background circle -->
  <circle cx="150" cy="150" r="100" fill="#D1CFE9" opacity="0.7" />
  
  <!-- Baby 1 (left) -->
  <circle cx="100" cy="100" r="25" fill="#FAF8E9" />
  <path d="M85 160 C85 135, 100 127, 100 110 C100 98, 100 102, 100 98 C100 94, 104 102, 108 98 L100 102 L92 98 C92 102, 100 98, 100 110 C100 127, 115 135, 115 160 Z" fill="#FAF8E9" />
  
  <!-- Baby 2 (right) -->
  <circle cx="200" cy="100" r="25" fill="#FAF8E9" />
  <path d="M185 160 C185 135, 200 127, 200 110 C200 98, 200 102, 200 98 C200 94, 204 102, 208 98 L200 102 L192 98 C192 102, 200 98, 200 110 C200 127, 215 135, 215 160 Z" fill="#FAF8E9" />
  
  <!-- Baby 3 (middle) -->
  <circle cx="150" cy="85" r="25" fill="#FAF8E9" />
  <path d="M135 145 C135 120, 150 112, 150 95 C150 83, 150 87, 150 83 C150 79, 154 87, 158 83 L150 87 L142 83 C142 87, 150 83, 150 95 C150 112, 165 120, 165 145 Z" fill="#FAF8E9" />
  
  <!-- Heart -->
  <path d="M150 175 C150 160, 165 155, 175 165 C185 155, 200 160, 200 175 C200 190, 175 205, 175 205 C175 205, 150 190, 150 175 Z" fill="#F8A4BB" />
</svg> 