<svg xmlns="http://www.w3.org/2000/svg" viewBox="0 0 300 300" fill="none">
  <!-- Background circle -->
  <circle cx="150" cy="150" r="100" fill="#D1CFE9" opacity="0.7" />
  
  <!-- Baby girl (right) -->
  <circle cx="180" cy="100" r="30" fill="#FAF8E9" />
  <path d="M160 170 C160 140, 180 130, 180 110 C180 95, 180 100, 180 95 C180 90, 185 100, 190 95 L180 100 L170 95 C170 100, 180 95, 180 110 C180 130, 200 140, 200 170 Z" fill="#FAF8E9" />
  
  <!-- Baby boy (left) -->
  <circle cx="120" cy="100" r="30" fill="#FAF8E9" />
  <path d="M100 170 C100 140, 120 130, 120 110 C120 95, 120 100, 120 95 C120 90, 125 100, 130 95 L120 100 L110 95 C110 100, 120 95, 120 110 C120 130, 140 140, 140 170 Z" fill="#FAF8E9" />
  
  <!-- Heart -->
  <path d="M165 140 C165 125, 180 120, 190 130 C200 120, 215 125, 215 140 C215 155, 190 170, 190 170 C190 170, 165 155, 165 140 Z" fill="#F8A4BB" />
</svg> 