<svg xmlns="http://www.w3.org/2000/svg" viewBox="0 0 100 100" fill="none">
  <circle cx="50" cy="50" r="40" fill="#FAF8E9" />
  <path d="M62 42C65.866 42 69 38.866 69 35C69 31.134 65.866 28 62 28C58.134 28 55 31.134 55 35C55 38.866 58.134 42 62 42Z" fill="#A095FF" />
  <path d="M38 42C41.866 42 45 38.866 45 35C45 31.134 41.866 28 38 28C34.134 28 31 31.134 31 35C31 38.866 34.134 42 38 42Z" fill="#A095FF" />
  <path d="M50 52C53.866 52 57 48.866 57 45C57 41.134 53.866 38 50 38C46.134 38 43 41.134 43 45C43 48.866 46.134 52 50 52Z" fill="#A095FF" />
  <path d="M37 69C37 59.5 46 63 50 52C54 63 63 59.5 63 69L50 69L37 69Z" fill="#A095FF" />
</svg> 